<svg xmlns="http://www.w3.org/2000/svg" xmlns:xlink="http://www.w3.org/1999/xlink" width="500" zoomAndPan="magnify" viewBox="0 0 375 374.999991" height="500" preserveAspectRatio="xMidYMid meet" version="1.0"><defs><clipPath id="2b53ba4485"><path d="M 14.0625 0 L 361 0 L 361 375 L 14.0625 375 Z M 14.0625 0 " clip-rule="nonzero"/></clipPath></defs><g clip-path="url(#2b53ba4485)"><path fill="#997f53" d="M 354.605469 42.796875 C 321.535156 42.796875 292.660156 57.328125 264.53125 75.027344 C 256.613281 70.460938 248.882812 68.414062 241.617188 68.414062 C 229.789062 68.414062 219.261719 73.910156 211.625 83.128906 C 203.613281 92.816406 199.886719 102.878906 196.070312 113.867188 C 190.015625 104.832031 184.796875 94.679688 180.328125 85.644531 C 157.601562 39.164062 117.453125 11.59375 57.46875 1.347656 L 50.949219 0.230469 L 50.667969 6.84375 C 50.015625 21.5625 51.695312 37.023438 55.605469 52.671875 C 47.6875 51.367188 39.585938 50.714844 31.203125 50.714844 C 25.613281 50.714844 19.835938 50.996094 14.0625 51.648438 C 30.082031 111.261719 80.195312 179.628906 142.976562 197.328125 C 113.636719 250.605469 105.253906 323.539062 169.058594 370.859375 L 174.273438 374.769531 L 177.535156 369.085938 C 203.054688 324.84375 190.667969 294.570312 172.132812 263.085938 C 190.109375 257.5 229.414062 240.917969 247.113281 199.28125 C 254.566406 181.773438 257.078125 162.023438 254.378906 142.183594 C 258.011719 124.859375 262.667969 108.464844 272.078125 95.425781 C 300.578125 56.304688 360.9375 42.984375 360.9375 42.984375 C 358.796875 42.890625 356.652344 42.796875 354.605469 42.796875 Z M 169.894531 90.769531 C 175.578125 102.316406 182.46875 115.636719 191.039062 126.910156 C 191.039062 127 191.132812 127 191.132812 127 C 190.851562 127.5625 190.667969 128.121094 190.386719 128.773438 C 189.363281 131.191406 188.246094 133.613281 187.035156 136.035156 C 180.046875 130.261719 175.949219 125.789062 166.167969 116.847656 C 154.433594 106.136719 148.378906 100.546875 145.210938 97.660156 C 123.414062 78.195312 97.335938 62.359375 67.433594 55 C 67.621094 54.160156 67.621094 53.230469 67.433594 52.207031 C 63.988281 39.070312 62.3125 26.3125 62.125 13.921875 C 114.472656 24.449219 149.777344 49.597656 169.894531 90.769531 Z M 27.753906 61.148438 C 28.871094 61.148438 29.992188 61.148438 31.109375 61.148438 C 40.703125 61.148438 50.296875 62.078125 59.703125 64.035156 C 87.367188 69.71875 113.820312 83.6875 138.226562 105.578125 C 139.996094 107.160156 142.789062 109.769531 147.167969 113.683594 C 150.242188 116.570312 154.152344 120.109375 159.089844 124.578125 C 162.816406 128.027344 165.703125 130.726562 168.21875 133.148438 C 172.875 137.527344 176.507812 141.066406 182.003906 145.445312 C 192.621094 154.015625 199.050781 159.136719 207.992188 161.652344 C 210.132812 162.210938 215.816406 163.886719 222.710938 163.886719 C 225.597656 163.886719 228.390625 163.609375 231 163.050781 C 229.136719 166.773438 226.621094 170.875 222.894531 174.597656 C 213.394531 184.472656 201.566406 187.734375 191.226562 189.597656 C 185.359375 190.621094 179.394531 191.179688 173.433594 191.179688 C 165.332031 191.179688 157.042969 190.15625 148.84375 188.105469 C 148.75 188.105469 148.65625 188.105469 148.566406 188.011719 C 148.472656 188.011719 148.378906 187.917969 148.285156 187.917969 C 92.117188 173.761719 46.105469 114.332031 27.753906 61.148438 Z M 170.640625 357.257812 C 124.535156 319.160156 125.835938 264.484375 145.027344 219.496094 C 146.609375 231.789062 150.242188 247.253906 158.253906 262.0625 C 158.902344 263.367188 159.648438 264.671875 160.488281 265.976562 C 177.625 294.945312 189.363281 320.371094 170.640625 357.257812 Z M 166.355469 252.5625 C 156.109375 231.046875 155.273438 208.691406 155.457031 200.121094 C 161.417969 201.144531 167.472656 201.703125 173.621094 201.703125 C 180.046875 201.703125 186.660156 201.144531 193.273438 199.933594 C 202.125 198.351562 217.957031 194.90625 230.535156 181.863281 C 237.796875 174.320312 241.523438 166.03125 243.667969 159.882812 C 243.386719 170.222656 241.617188 182.238281 236.308594 194.625 C 219.636719 233.933594 181.167969 248.371094 166.355469 252.5625 Z M 263.601562 89.277344 C 253.074219 103.808594 248.042969 121.785156 244.597656 137.898438 C 243.851562 138.550781 243.292969 139.390625 243.015625 140.414062 C 235.65625 150.101562 228.578125 151.3125 223.734375 151.3125 C 216.1875 151.3125 206.96875 147.867188 196.347656 140.878906 C 197.652344 138.273438 198.863281 135.664062 200.074219 132.871094 C 202.308594 127.5625 204.078125 122.625 205.757812 117.875 C 209.480469 107.347656 212.742188 98.21875 219.726562 89.835938 C 223.921875 84.808594 231.09375 78.84375 241.710938 78.84375 C 247.394531 78.84375 253.355469 80.613281 259.410156 84.0625 C 260.992188 84.992188 262.855469 85.457031 264.625 85.457031 C 265.371094 85.457031 266.023438 85.367188 266.765625 85.273438 C 265.648438 86.484375 264.625 87.878906 263.601562 89.277344 Z M 263.601562 89.277344 " fill-opacity="1" fill-rule="nonzero"/></g></svg>